<svg width="24" height="25" viewBox="0 0 24 25" fill="none" xmlns="http://www.w3.org/2000/svg">
  <g clip-path="url(#clip0_29338_1869)">
    <path d="M14.9999 7.94125L8.49995 14.4412C8.10212 14.8391 7.87863 15.3786 7.87863 15.9412C7.87863 16.5039 8.10212 17.0434 8.49995 17.4412C8.89777 17.8391 9.43734 18.0626 9.99995 18.0626C10.5626 18.0626 11.1021 17.8391 11.4999 17.4412L17.9999 10.9412C18.7956 10.1456 19.2426 9.06647 19.2426 7.94125C19.2426 6.81603 18.7956 5.7369 17.9999 4.94125C17.2043 4.1456 16.1252 3.69861 14.9999 3.69861C13.8747 3.69861 12.7956 4.1456 11.9999 4.94125L5.49995 11.4412C4.30647 12.6347 3.63599 14.2534 3.63599 15.9412C3.63599 17.6291 4.30647 19.2478 5.49995 20.4412C6.69342 21.6347 8.31212 22.3052 9.99995 22.3052C11.6878 22.3052 13.3065 21.6347 14.4999 20.4412L20.9999 13.9412" stroke="#7330DF" stroke-width="2" stroke-linecap="round" stroke-linejoin="round" />
  </g>
  <defs>
    <clipPath id="clip0_29338_1869">
      <rect width="24" height="24" fill="white" transform="translate(0 0.941284)" />
    </clipPath>
  </defs>
</svg>
