<svg width="26" height="26" viewBox="0 0 26 26" fill="none" xmlns="http://www.w3.org/2000/svg">
<g clip-path="url(#clip0_29301_43033)">
<path fill-rule="evenodd" clip-rule="evenodd" d="M13 4.33329C8.21352 4.33329 4.33332 8.21349 4.33332 13C4.33332 17.7864 8.21352 21.6666 13 21.6666C17.7865 21.6666 21.6667 17.7864 21.6667 13C21.6667 8.21349 17.7865 4.33329 13 4.33329ZM2.16666 13C2.16666 7.01687 7.0169 2.16663 13 2.16663C18.9831 2.16663 23.8333 7.01687 23.8333 13C23.8333 18.983 18.9831 23.8333 13 23.8333C7.0169 23.8333 2.16666 18.983 2.16666 13Z" fill="#56CDAD"/>
<path fill-rule="evenodd" clip-rule="evenodd" d="M17.016 10.0673C17.4391 10.4904 17.4391 11.1763 17.016 11.5994L12.6827 15.9327C12.2596 16.3558 11.5737 16.3558 11.1506 15.9327L8.98396 13.766C8.56089 13.343 8.56089 12.657 8.98396 12.234C9.40703 11.8109 10.093 11.8109 10.516 12.234L11.9167 13.6346L15.484 10.0673C15.907 9.64423 16.593 9.64423 17.016 10.0673Z" fill="#56CDAD"/>
</g>
<defs>
<clipPath id="clip0_29301_43033">
<rect width="26" height="26" fill="white"/>
</clipPath>
</defs>
</svg>
