<svg width="33" height="34" viewBox="0 0 33 34" fill="none" xmlns="http://www.w3.org/2000/svg">
  <path d="M8.66797 20.7647C10.8771 20.7647 12.668 18.908 12.668 16.6176C12.668 14.3273 10.8771 12.4706 8.66797 12.4706C6.45883 12.4706 4.66797 14.3273 4.66797 16.6176C4.66797 18.908 6.45883 20.7647 8.66797 20.7647Z" stroke="#747474" stroke-width="2" stroke-linecap="round" stroke-linejoin="round" />
  <path d="M24.668 12.4706C26.8771 12.4706 28.668 10.6139 28.668 8.32357C28.668 6.03321 26.8771 4.17651 24.668 4.17651C22.4588 4.17651 20.668 6.03321 20.668 8.32357C20.668 10.6139 22.4588 12.4706 24.668 12.4706Z" stroke="#747474" stroke-width="2" stroke-linecap="round" stroke-linejoin="round" />
  <path d="M24.668 29.0589C26.8771 29.0589 28.668 27.2022 28.668 24.9118C28.668 22.6215 26.8771 20.7648 24.668 20.7648C22.4588 20.7648 20.668 22.6215 20.668 24.9118C20.668 27.2022 22.4588 29.0589 24.668 29.0589Z" stroke="#747474" stroke-width="2" stroke-linecap="round" stroke-linejoin="round" />
  <path d="M12.268 14.8206L21.068 10.1206" stroke="#747474" stroke-width="2" stroke-linecap="round" stroke-linejoin="round" />
  <path d="M12.268 18.4147L21.068 23.1147" stroke="#747474" stroke-width="2" stroke-linecap="round" stroke-linejoin="round" />
</svg>
